<?xml version="1.0" encoding="UTF-8" standalone="no"?>
<!-- Created with Inkscape (http://www.inkscape.org/) -->

<svg
   xmlns:dc="http://purl.org/dc/elements/1.1/"
   xmlns:cc="http://creativecommons.org/ns#"
   xmlns:rdf="http://www.w3.org/1999/02/22-rdf-syntax-ns#"
   xmlns:svg="http://www.w3.org/2000/svg"
   xmlns="http://www.w3.org/2000/svg"
   xmlns:xlink="http://www.w3.org/1999/xlink"
   xmlns:sodipodi="http://sodipodi.sourceforge.net/DTD/sodipodi-0.dtd"
   xmlns:inkscape="http://www.inkscape.org/namespaces/inkscape"
   version="1.0"
   width="650"
   height="750"
   id="svg2"
   inkscape:version="0.48.5 r10040"
   sodipodi:docname="Heraldic_figures_-_Griffin.svg">
  <metadata
     id="metadata32">
    <rdf:RDF>
      <cc:Work
         rdf:about="">
        <dc:format>image/svg+xml</dc:format>
        <dc:type
           rdf:resource="http://purl.org/dc/dcmitype/StillImage" />
      </cc:Work>
    </rdf:RDF>
  </metadata>
  <sodipodi:namedview
     pagecolor="#ffffff"
     bordercolor="#666666"
     borderopacity="1"
     objecttolerance="10"
     gridtolerance="10"
     guidetolerance="10"
     inkscape:pageopacity="0"
     inkscape:pageshadow="2"
     inkscape:window-width="1275"
     inkscape:window-height="770"
     id="namedview30"
     showgrid="false"
     inkscape:zoom="0.31466667"
     inkscape:cx="276.71839"
     inkscape:cy="535.53759"
     inkscape:window-x="465"
     inkscape:window-y="93"
     inkscape:window-maximized="0"
     inkscape:current-layer="g3016" />
  <desc
     id="desc4">Flag of Canton of Valais (Wallis)</desc>
  <defs
     id="defs6">
    <linearGradient
       id="linearGradient2893">
      <stop
         id="stop2895"
         style="stop-color:#ffffff;stop-opacity:0.3137255"
         offset="0" />
      <stop
         id="stop2897"
         style="stop-color:#ffffff;stop-opacity:0.25098041"
         offset="0.19" />
      <stop
         id="stop2901"
         style="stop-color:#6b6b6b;stop-opacity:0.1254902"
         offset="0.60000002" />
      <stop
         id="stop2899"
         style="stop-color:#000000;stop-opacity:0.1254902"
         offset="1" />
    </linearGradient>
    <radialGradient
       cx="203.19754"
       cy="218.01039"
       r="300"
       fx="203.19754"
       fy="218.01039"
       id="radialGradient2883"
       xlink:href="#linearGradient2893"
       gradientUnits="userSpaceOnUse"
       gradientTransform="matrix(1.360018,0,0,1.355087,-79.5275,-87.64524)" />
    <linearGradient
       id="linearGradient2955">
      <stop
         id="stop2965"
         style="stop-color:#ffffff;stop-opacity:0"
         offset="0" />
      <stop
         id="stop2959"
         style="stop-color:#000000;stop-opacity:0.64583331"
         offset="1" />
    </linearGradient>
    <radialGradient
       cx="225.52438"
       cy="218.90099"
       r="300"
       fx="225.52438"
       fy="218.90099"
       id="radialGradient2961"
       xlink:href="#linearGradient2955"
       gradientUnits="userSpaceOnUse"
       gradientTransform="matrix(-4.167939e-4,2.182867,-1.884232,-3.599562e-4,615.5972,-289.1214)" />
    <polygon
       points="0,-1 0.58778525,0.80901699 -0.95105652,-0.30901699 0.95105652,-0.30901699 -0.58778525,0.80901699 0,-1 "
       transform="scale(53,53)"
       id="star" />
    <clipPath
       id="clip">
      <path
         d="M 0,-200 L 0,600 L 300,600 L 300,-200 L 0,-200 z"
         id="path10" />
    </clipPath>
    <radialGradient
       cx="225.52438"
       cy="218.90099"
       r="300"
       fx="225.52438"
       fy="218.90099"
       id="radialGradient1911"
       xlink:href="#linearGradient2955"
       gradientUnits="userSpaceOnUse"
       gradientTransform="matrix(-4.167939e-4,2.182867,-1.884232,-3.599562e-4,1395.597,-309.1214)" />
    <radialGradient
       cx="-483.50824"
       cy="153.9283"
       r="300.00003"
       fx="-483.50824"
       fy="153.9283"
       id="radialGradient2928"
       xlink:href="#linearGradient2955"
       gradientUnits="userSpaceOnUse"
       gradientTransform="matrix(0,2.342476,-2.291353,0,562.9126,1323.77)" />
    <radialGradient
       cx="285.18573"
       cy="200.44757"
       r="300"
       fx="285.18573"
       fy="200.44757"
       id="radialGradient11919"
       xlink:href="#linearGradient2893"
       gradientUnits="userSpaceOnUse"
       gradientTransform="matrix(1.551284,0,0,1.350335,-227.8943,-51.2635)" />
  </defs>
  <g
     id="g3016">
    <path
       d="M 563.15641,434.36065 C 580.15111,421.87302 603.69171,427.30405 602.80151,448.86994 C 588.81121,439.05958 576.38911,442.83169 572.55681,450.70914 C 588.20301,440.66251 611.26191,452.13362 602.80151,475.23187 C 599.23501,466.90255 583.27721,467.15027 582.57021,477.47979 C 580.79211,488.93423 618.02991,502.43723 618.74131,538.37791 C 617.82441,582.74422 560.93981,580.00807 538.22501,571.89231 C 497.38341,555.28961 483.68351,500.56837 475.69201,477.47979 C 471.50671,455.66212 463.25541,438.67289 450.35191,427.20819 C 454.22361,487.22619 443.92571,487.66382 418.47231,530.20367 C 417.47571,535.62618 428.32751,539.42125 439.52101,533.06465 C 456.09071,524.45208 472.85281,528.30975 479.37041,547.36958 C 484.46561,562.64824 483.12841,564.32843 501.84961,563.30936 C 496.04351,578.31043 487.47881,589.23873 469.76571,583.1319 C 471.87421,603.77187 490.35621,587.3561 501.64521,587.21902 C 492.59141,606.3581 481.46011,628.95013 456.27821,609.69819 C 455.78201,624.33122 455.00531,638.92417 450.76061,653.02169 C 448.81791,658.79783 448.78151,663.97201 457.09561,666.50919 C 469.95511,671.10028 482.43451,688.36383 469.56131,697.1626 C 470.52081,717.90501 461.00561,721.50699 450.14751,722.91147 C 452.08971,716.36413 454.56901,709.57809 451.78231,705.13249 C 442.25261,708.05467 439.42571,704.27413 435.63821,701.45408 C 432.13401,711.45259 423.92941,713.81301 416.22441,716.98515 C 408.83781,719.49113 403.03701,743.28099 374.33141,730.677 C 357.59291,728.03079 355.73001,738.84354 349.60431,745.79936 C 348.24571,733.20568 344.77951,719.11624 364.93101,711.26317 C 360.45741,709.15149 358.54901,707.03982 356.14371,704.92814 C 347.06111,699.87152 339.28781,706.16198 331.82531,715.14594 C 331.72201,700.27968 332.21851,685.81866 351.85221,684.28817 L 354.91761,679.99669 C 351.48951,677.74081 351.27371,673.34341 351.03481,668.96146 C 339.51691,665.15114 337.06611,675.84809 330.39481,679.79233 C 326.72191,659.90712 339.18931,649.62293 358.18731,648.11714 C 374.27381,642.14885 384.94451,651.97643 394.56261,664.87434 C 407.03771,666.78619 410.90071,660.37294 407.02841,646.48229 C 404.81891,636.19637 402.50211,625.91044 402.94121,615.62452 C 404.59311,591.14002 386.35751,595.29337 375.76191,588.44516 C 378.88711,617.64081 347.98091,609.96791 333.05151,610.92433 C 347.25931,598.46301 356.96691,597.85274 343.26931,576.38815 C 328.57391,552.8872 342.60811,530.40802 345.31281,505.88529 C 329.98211,505.84095 315.14991,502.80602 300.35451,499.55025 C 287.67021,497.61654 273.26991,495.76019 271.94901,507.11143 C 270.46511,515.91278 298.02721,517.30024 297.18691,537.15177 C 297.12951,554.79423 286.86451,558.4427 286.86701,565.14856 C 285.56371,573.11264 298.29041,577.99759 300.76321,585.17546 C 285.01161,583.97753 266.86501,589.10913 258.25711,569.03133 C 249.54021,585.75706 267.65391,585.91097 275.62741,592.32792 C 258.45691,602.00448 242.08237,608.31344 231.89519,588.44516 C 216.83149,602.11289 201.00354,615.20743 181.62358,625.63797 C 187.1485,638.78349 195.23152,654.72702 178.14953,658.74366 C 175.15346,672.89595 166.61132,678.54427 155.466,680.20105 C 157.11637,673.43977 160.43242,667.23371 157.50956,658.94801 C 140.56293,657.68035 143.51299,646.46435 144.43077,636.26448 C 122.78442,631.75677 78.1685,640.81498 81.48909,611.74175 C 69.82788,605.06202 66.1913,613.62908 59.41863,616.23759 C 57.65104,602.11253 73.98619,588.85967 88.84591,594.98455 L 91.09383,591.71485 C 89.04954,588.64951 90.1457,585.58417 91.29819,582.51883 C 85.82375,572.39745 74.90217,575.8939 65.34496,575.97943 C 71.53348,561.29666 89.75335,554.49176 102.94648,566.98777 L 107.44232,564.12678 C 108.14224,560.12183 109.38889,556.52692 114.39043,555.74818 C 112.79367,544.30607 99.24996,550.65413 90.88947,548.39136 C 98.17605,533.30719 125.01187,531.88804 133.19119,547.77829 C 144.17346,546.77349 150.78546,555.6018 148.72225,583.94932 C 148.09927,596.49438 166.693,593.65476 166.70559,584.76675 C 172.66503,563.5187 185.8048,548.54635 201.44613,534.29078 C 207.12546,526.8051 207.94626,519.98287 201.65048,516.30745 C 185.70034,508.66083 182.34353,498.58496 182.64537,486.06275 C 156.10274,492.85095 152.90441,474.45565 151.99195,455.61369 C 162.98557,463.12437 171.3854,469.77463 178.96695,450.30043 C 188.91191,430.70941 215.7198,421.3682 242.93041,429.86482 C 254.62831,434.86632 293.22021,435.62366 305.23731,430.33655 C 299.31901,413.61241 243.4834,425.88426 195.05227,374.86816 C 189.06091,396.1749 175.95188,384.86619 171.13037,364.44066 C 154.42949,368.7744 137.73525,368.46066 145.61369,354.50388 C 136.08569,354.82366 133.36863,351.42837 134.08211,346.16188 L 94.33496,349.47415 C 94.43178,365.5641 107.34609,393.50207 89.55058,393.51497 C 82.24924,414.40983 63.59289,413.37906 51.76626,399.77146 C 62.9102,399.87453 72.65191,398.57536 72.74392,387.6265 C 66.3451,382.45201 63.79531,376.45273 70.41307,368.48898 L 69.79968,359.90164 C 58.4318,357.95799 51.39078,353.46912 55.81458,342.23624 L 44.03764,334.1396 C 30.76024,334.72222 23.31229,331.00946 27.72169,318.5597 C 20.72054,313.48726 10.97349,314.36426 1.22359,315.24744 C 5.61058,299.81947 21.57326,297.29599 32.75142,301.38501 C 50.53342,291.14769 47.19213,315.71576 56.79599,316.22885 C 54.66369,310.56652 51.76518,304.68528 52.74767,299.91289 C 42.40297,294.14702 41.92897,287.59149 43.17891,280.89805 C 36.61999,268.88057 25.74523,272.68785 16.68081,269.85718 C 25.91063,259.25192 41.10379,254.44615 54.34246,266.54491 C 73.43119,267.71149 71.18512,295.14993 78.26435,311.32179 C 78.35162,306.12908 81.72535,301.36127 84.15282,299.91289 C 82.45479,297.35385 80.96574,294.62762 81.57662,290.22145 C 70.9224,285.68869 69.31933,266.20847 80.34985,262.49659 C 78.00683,250.07181 70.23111,244.16626 63.42051,237.10258 C 75.11701,236.49586 89.89965,238.59774 96.05243,258.44827 C 106.93978,259.33607 107.41372,271.04772 107.17905,286.17685 C 107.00226,297.57526 106.05169,311.58321 99.18068,320.46118 C 108.05109,320.42256 117.36578,318.42774 125.61744,316.84223 C 118.20929,306.82266 121.82251,301.30478 137.63972,300.77162 C 130.81148,296.21104 129.31792,283.64842 126.8442,272.55606 C 135.24383,276.73253 143.50897,281.85038 152.85159,279.42593 C 150.96728,267.40231 151.52381,258.68099 155.19893,254.17895 C 151.81984,242.55634 156.33469,231.37227 158.37203,220.05057 C 147.59199,207.83307 134.82632,200.33142 121.44644,194.28853 C 128.55269,186.14478 138.58357,187.42484 148.55792,188.52274 C 143.22199,180.25319 134.95713,174.36338 134.32746,162.26999 C 138.27375,160.06101 141.56851,160.45817 144.87763,160.79788 L 125.37208,131.11019 C 121.23658,146.31888 129.11891,172.2635 102.67695,167.54508 C 83.13815,177.85604 70.57838,167.58844 67.1008,151.71982 C 75.01671,153.0744 83.44386,161.58628 90.77734,154.78673 C 88.71461,143.66039 94.36022,138.84088 103.04498,136.50795 C 101.42766,131.67901 99.86728,126.83868 103.04498,121.05073 C 98.22079,116.9608 95.12084,111.72137 95.19369,104.36674 C 90.28283,99.273867 82.20124,95.003867 77.65097,89.154867 C 66.34376,89.886537 52.50593,75.868047 61.70304,67.809177 C 56.68895,55.38694 45.67064,60.053607 36.79974,58.608447 C 43.00366,41.822323 61.15641,40.069195 72.74392,54.069423 C 85.91454,53.120369 91.88426,70.500867 101.45019,78.727377 L 101.08216,68.790587 C 91.34902,60.816627 84.45082,52.842658 95.07102,44.868694 C 93.89271,36.865176 84.52388,31.343633 72.62124,26.589914 C 87.76235,18.453315 101.63232,19.638408 112.85909,40.206992 C 123.04903,44.496603 123.98757,56.752507 125.49476,68.913267 C 128.80267,66.723367 127.46984,62.090407 129.91111,59.589857 C 126.057,49.457538 127.30791,42.515854 139.11184,42.169814 C 137.80845,31.763819 129.18649,25.840316 122.55053,19.229331 C 134.98994,16.808486 158.40136,25.006679 156.4092,46.586163 C 159.16318,48.892336 160.5105,51.815506 160.33485,56.400277 C 158.51395,69.770437 148.53174,72.395717 135.43155,98.232917 C 142.48565,114.00311 157.4439,125.32721 169.16755,138.47077 C 171.14617,134.04725 176.25774,130.51886 180.3311,126.69384 C 182.1447,134.58028 183.80483,142.52811 188.79577,149.14362 C 191.05184,140.71458 197.15922,137.82179 204.62102,136.87598 C 206.17085,149.04498 202.7913,163.12214 213.56689,171.71988 C 246.33923,160.55903 284.75181,157.71664 304.72211,107.31002 C 285.89991,96.457997 264.25381,97.582417 242.79905,103.8418 C 246.77375,95.925437 252.20811,89.468777 260.14021,85.509757 C 252.12691,84.964817 245.20242,90.821907 238.34942,93.177507 C 241.40543,86.571367 248.97361,78.493117 261.24901,71.886977 C 248.50524,61.168517 233.20411,73.852417 230.908,91.950747 C 217.03103,77.435997 214.42916,60.906287 229.42162,42.900166 C 238.75751,31.815229 248.93891,22.139421 266.08571,24.072671 C 275.54321,-10.715183 327.26111,8.706953 348.82761,18.622606 C 358.81001,5.842376 377.03071,14.476462 396.39921,14.127664 C 410.65351,13.870965 412.87801,5.565226 422.65121,4.749714 C 415.41271,12.802138 413.94551,27.408763 399.36451,33.981879 C 408.25561,40.163793 423.96981,21.974237 438.50591,26.549973 C 423.51091,35.823031 429.01961,42.979334 416.75781,54.570016 C 405.65131,65.068657 386.43351,63.520767 384.50071,65.195887 C 393.50721,72.601887 392.84791,88.390227 403.82371,90.464367 C 398.18491,97.993897 394.32711,97.484497 388.46441,98.887197 C 393.68731,103.87355 390.49891,110.86077 408.22691,123.74697 C 404.36961,125.39408 398.65791,124.62861 392.75011,124.73789 C 394.63101,132.48854 395.89881,133.978 405.13661,139.6017 C 400.84031,144.77248 396.45591,149.73761 388.95991,147.44232 C 391.40841,157.4197 391.59621,166.26677 391.93261,175.1881 L 384.00531,174.19718 C 384.42201,189.17366 381.60461,201.99408 370.62781,209.37487 L 367.29661,205.25133 C 366.10781,214.96805 367.68091,227.69771 355.12041,225.00892 C 354.63021,229.98661 355.01791,234.96429 353.05271,239.94198 C 362.05741,240.51658 370.48491,242.96478 373.49961,250.96947 L 382.22961,249.13156 C 381.74401,235.57654 385.33401,224.46694 387.28391,212.37326 C 398.72551,211.1969 407.20591,215.5482 410.48761,229.60371 C 421.54851,211.30114 411.61301,193.81599 411.04861,175.51341 C 425.41951,177.29226 440.29071,179.39498 449.31361,200.42681 C 454.64381,150.99095 456.68341,98.627297 467.92241,54.082807 C 499.76021,70.213727 488.44511,162.55966 488.13951,187.33166 C 533.71841,137.84072 544.97181,74.980937 538.91191,5.378054 C 610.21661,29.439935 562.73881,142.20959 549.93941,174.00678 C 571.95081,151.75865 596.58071,111.22293 630.80771,116.57193 C 639.37181,133.34804 585.26641,181.10288 566.48061,213.98143 C 579.25471,198.63359 629.45431,175.36885 639.07831,200.19707 C 640.27451,204.09882 574.14641,256.11462 541.66881,274.17315 C 539.48111,275.8517 536.95301,277.48162 538.45241,279.6869 C 570.22561,264.23863 639.24871,272.64529 634.48351,305.87719 C 584.46971,300.03689 536.49661,307.12126 489.74771,321.95895 C 478.71191,334.77159 456.63691,341.27238 430.01541,342.17602 L 430.01541,349.98716 C 403.31601,350.67678 388.33191,341.71841 370.28321,335.28383 C 374.32311,344.42622 406.92741,375.26176 438.28611,388.58338 C 453.31451,396.23349 491.44741,414.12451 497.09931,464.39738 C 501.93881,492.9829 520.50381,537.83524 554.99371,548.482 C 563.57171,551.58507 581.52911,553.49635 583.02191,547.56304 C 581.60201,539.2081 569.50231,545.45122 561.88591,546.64408 C 565.77061,529.05178 575.38721,521.49014 594.50881,530.56232 C 594.38031,513.90115 570.50831,507.41572 556.83161,496.56089 C 532.62491,478.89897 522.92151,456.40265 526.50601,429.47699 C 527.06861,398.81835 504.22961,395.07154 483.77451,388.58338 C 499.17361,379.26427 531.92651,366.20367 546.62151,392.77074 C 550.71321,387.95849 554.75011,380.40322 564.18331,374.03365 C 577.81351,364.08963 576.40241,344.69214 584.40031,336.20279 C 602.71371,311.8587 638.89391,326.53814 628.05081,366.06891 C 622.57891,376.82203 606.94991,386.95957 617.63511,398.69191 C 625.27371,402.98372 632.26661,400.61697 632.93431,397.42207 C 633.70811,392.5082 629.67251,390.89737 622.29291,390.99922 C 625.99531,382.96727 646.98051,382.05624 648.71341,397.9456 C 647.68281,422.32606 601.43321,433.6643 592.28391,397.37752 C 590.25911,375.70111 614.99661,355.87098 607.05401,348.90112 C 597.76711,345.48979 596.61361,372.77317 588.87541,384.31162 C 583.41611,394.0334 576.61151,401.06458 570.12861,408.73918 C 591.26311,406.4918 600.79351,415.63129 602.88811,432.59866 C 590.55151,421.52816 567.67901,422.33249 563.15641,434.36065 z"
       id="path3141"
       style="fill:#000000;fill-opacity:1;fill-rule:evenodd;stroke:none;stroke-width:1px;stroke-linecap:butt;stroke-linejoin:miter;stroke-opacity:1" />
    <path
       d="M 306.93601,45.490793 C 307.00661,45.490793 307.07711,45.490793 306.93601,45.490793 z"
       id="path3654"
       style="fill:#feed01;fill-opacity:1;fill-rule:evenodd;stroke:none;stroke-width:1px;stroke-linecap:butt;stroke-linejoin:miter;stroke-opacity:1" />
    <path
       d="M 141.26315,45.971085 C 143.94137,48.809355 149.05259,49.499929 152.47309,47.090352 C 155.72142,29.12801 138.34959,21.712743 129.00962,22.042122 C 135.33465,29.547064 143.31672,31.957039 141.26315,45.971085 z M 80.27021,27.283227 C 93.18879,21.29342 104.889,30.891437 109.61227,41.869455 C 110.32818,47.968096 100.32486,50.082008 98.24858,45.346405 C 95.99067,34.898815 88.55929,30.582761 80.27021,27.283227 z M 72.04426,58.236557 C 74.87058,61.841527 67.12981,67.895107 64.49673,66.547317 C 58.92864,56.582777 52.32014,55.201364 41.93896,56.201267 C 47.02654,43.971827 65.61257,47.819307 72.04426,58.236557 z M 72.12906,155.76076 C 77.52775,157.09749 86.79056,163.61072 93.49958,156.43919 C 96.8107,155.48526 102.08709,159.60269 101.0471,163.13868 C 92.26705,174.59633 73.02732,165.56037 72.12906,155.76076 z M 69.37385,239.83964 C 83.39683,239.79918 93.0751,251.29758 93.93004,262.17202 C 92.42653,266.35854 84.86594,265.04435 82.54113,263.77903 C 83.42306,252.82148 75.76176,246.79675 69.37385,239.83964 z M 21.73683,268.66791 C 30.13358,268.57268 40.11374,269.29123 45.0412,278.62616 C 47.17449,279.73622 54.71242,274.34872 52.74088,269.59187 C 42.55902,259.16039 28.46927,261.43886 21.73683,268.66791 z M 6.02948,312.50476 C 6.0637,312.50476 6.09792,312.50476 6.02948,312.50476 z M 5.82415,312.50476 C 5.85837,312.50476 5.89259,312.50476 5.82415,312.50476 z M 5.61883,312.4021 C 13.91351,312.6094 21.91835,309.74101 30.77112,317.43256 C 36.60726,315.67558 36.19715,311.11855 34.15898,305.8317 C 20.91002,300.55067 10.15924,306.22044 5.61883,312.4021 z M 58.79796,401.71841 C 67.19299,400.97373 74.71069,399.81733 75.83992,388.57762 C 78.6023,386.33814 84.84924,386.88707 87.23545,390.32288 C 84.90295,408.47436 66.68265,409.33765 58.79796,401.71841 z M 158.9169,676.69457 C 164.0172,668.18074 162.13462,657.87544 159.0625,652.81422 C 162.29939,641.92839 171.91587,644.86372 175.07661,650.88118 C 174.71528,667.46222 168.45415,675.54459 158.9169,676.69457 z M 61.95028,612.62468 C 66.73188,609.03709 76.72266,602.74981 86.04173,610.87445 C 90.18233,609.91789 93.74515,606.02159 90.57175,598.62281 C 75.80447,593.27071 62.44738,602.77215 61.95028,612.62468 z M 70.18667,573.70772 C 80.92632,571.524 88.7161,573.80716 95.10177,582.45889 C 102.23895,582.79072 104.97205,577.51731 103.54407,571.64862 C 94.78595,560.53417 77.09343,562.39049 70.18667,573.70772 z M 96.44018,546.42467 C 106.8802,545.7718 116.87241,546.05189 120.8405,558.88221 C 126.10169,561.04038 132.62357,557.23549 131.95963,550.64582 C 122.49795,536.05892 105.71906,538.63525 96.44018,546.42467 z M 333.73141,671.07633 C 334.93581,660.61109 343.74191,651.28244 357.49751,652.27628 C 363.12391,659.02975 359.54911,666.29245 356.43341,668.94802 C 348.68211,663.22744 340.70021,664.58087 333.73141,671.07633 z M 335.06711,707.78534 C 334.07271,698.15819 339.79721,685.31858 355.95121,687.30286 C 360.85041,693.56439 360.10021,699.17663 357.95921,702.2631 C 346.65721,697.98139 340.25291,701.96204 335.06711,707.78534 z M 352.53741,738.81028 C 357.01151,730.42734 365.21911,727.54414 375.02801,727.16338 C 376.70171,720.36191 372.06631,715.32718 368.20051,713.50839 C 355.83071,716.21012 348.94091,726.21371 352.53741,738.81028 z M 454.12531,719.98612 C 457.24721,711.4231 456.65081,704.85914 451.20721,699.5592 C 451.29491,691.89893 456.86491,689.18184 464.66821,692.96988 C 469.46501,706.80888 463.97201,718.77029 454.12531,719.98612 z"
       id="path3707"
       style="fill:#3262d6;fill-opacity:1;fill-rule:evenodd;stroke:none;stroke-width:1px;stroke-linecap:butt;stroke-linejoin:miter;stroke-opacity:1" />
    <path
       d="M 305.85961,74.981697 C 303.15121,61.459987 296.39361,48.154956 284.42501,44.822916 C 272.83041,40.920204 269.58471,35.206707 266.99461,28.731279 C 240.88619,26.421008 214.34791,62.003677 230.10343,81.302657 C 235.01907,60.617367 260.47611,55.828787 268.88791,72.515917 C 281.35101,70.273277 293.82001,71.636867 305.85961,74.981697 z M 252.53091,83.172117 C 268.20951,76.845397 285.83221,78.346937 303.12551,79.361647 C 300.81451,70.578477 257.73491,71.514047 252.53091,83.172117 z M 251.26081,99.049087 C 270.77891,91.819157 286.92381,92.096227 302.06711,100.95432 C 309.79041,104.28122 314.03991,90.881357 307.99451,84.230587 C 286.15101,76.349477 261.87681,88.651077 251.26081,99.049087 z"
       id="path3646"
       style="fill:#5880e6;fill-opacity:1;fill-rule:evenodd;stroke:none;stroke-width:1px;stroke-linecap:butt;stroke-linejoin:miter;stroke-opacity:1" />
    <path
       d="M 307.57111,45.490793 C 309.18621,58.392817 322.10651,56.557177 316.67391,44.855714 C 321.47341,45.066279 324.76801,46.781711 324.50651,52.053271 C 324.04831,56.796107 319.96251,59.325197 316.03881,59.674217 C 310.60281,61.158987 298.18971,52.604842 297.83321,49.301264 C 298.72301,45.533799 302.79981,45.376718 307.57111,45.490793 z"
       id="path2430"
       style="fill:#ffffff;fill-opacity:1;fill-rule:evenodd;stroke:none;stroke-width:1px;stroke-linecap:butt;stroke-linejoin:miter;marker:none;marker-start:none;marker-mid:none;marker-end:none;stroke-miterlimit:4;stroke-dasharray:none;stroke-dashoffset:0;stroke-opacity:1;visibility:visible;display:inline;overflow:visible;enable-background:accumulate" />
    <path
       d="M 127.80933,308.81298 C 127.885,308.81298 127.96068,308.81298 127.80933,308.81298 z"
       id="path2408"
       style="fill:#feed01;fill-opacity:1;fill-rule:evenodd;stroke:none;stroke-width:1px;stroke-linecap:butt;stroke-linejoin:miter;marker:none;marker-start:none;marker-mid:none;marker-end:none;stroke-miterlimit:4;stroke-dasharray:none;stroke-dashoffset:0;stroke-opacity:1;visibility:visible;display:inline;overflow:visible;enable-background:accumulate" />
    <path
       d="M 131.39132,94.716947 C 127.66094,89.892647 123.81027,85.151037 124.66198,77.176547 C 126.26477,74.340667 127.96908,71.657067 130.72942,70.557527 C 131.1923,66.636057 132.24619,62.983227 135.91432,60.518687 C 130.5977,53.438332 131.80378,47.096356 140.10636,47.611595 C 143.70278,51.131494 147.98991,50.967551 152.46186,49.817935 C 157.46023,56.896757 152.59211,63.914787 147.38728,69.564677 C 141.03359,77.118847 136.53158,84.956557 131.39132,94.716947 z M 88.45115,324.58624 C 106.61179,321.32359 103.53503,269.32054 99.13799,265.23321 C 94.26795,264.60578 91.6793,265.75277 90.75293,268.19264 C 85.32056,267.36382 80.66403,267.31085 79.57286,270.82324 C 78.12906,275.09797 78.60995,279.37271 80.23051,283.64744 C 82.71933,286.68313 86.08609,283.37908 89.43763,286.9357 C 85.36961,290.52382 87.0644,296.9902 89.76645,300.41755 C 82.66426,307.56149 78.3314,319.62527 88.45115,324.58624 z M 153.48072,164.43869 C 154.41793,155.86542 153.98333,149.36288 154.65489,144.69127 C 158.47193,142.59913 162.06016,147.46846 167.63045,147.45901 C 156.38535,127.5 135.63494,119.966 129.74272,96.659087 C 123.27614,91.819977 120.70557,85.794217 121.03065,76.427337 C 119.10241,66.090347 122.23553,55.247924 111.5975,45.580919 C 106.47286,51.274791 102.62505,49.275051 98.29675,49.542844 C 88.71727,54.289504 99.96617,65.450637 108.76755,64.824557 C 103.36563,74.281197 106.13415,83.451477 111.95726,93.656457 C 98.18422,89.561187 83.86123,58.566867 75.09119,59.730657 C 73.63381,64.521947 71.71388,67.346577 65.81473,68.436387 C 57.40888,77.796047 72.10413,87.010287 79.6191,83.502207 C 81.74291,92.297947 93.64809,94.929527 100.8437,102.46285 C 98.97066,110.86686 102.6449,115.7408 109.05055,118.87655 C 106.34564,123.71432 104.38453,129.20292 107.63558,139.25216 C 99.58596,141.79723 92.55012,147.2638 95.81216,153.82876 C 100.55417,155.50638 102.56089,158.20288 103.52978,162.899 C 122.89779,168.91746 119.10986,132.14404 120.54301,115.23117 C 132.02579,130.03674 141.21446,148.84517 153.48072,164.43869 z M 87.50522,346.5949 C 96.95427,342.48276 114.06952,342.8614 128.66034,342.17711 C 142.98814,341.11491 147.71959,328.55553 145.63393,321.01826 C 129.03788,319.55566 109.43912,328.53625 87.27271,325.43605 C 63.81259,322.17912 74.61904,276.19844 54.72063,272.65517 C 54.34852,276.85586 51.63086,279.40854 47.28015,280.7932 C 44.16559,288.83426 50.05004,293.935 57.97584,297.06924 C 57.85342,301.64203 57.5124,306.21482 60.99853,310.78761 C 61.01865,316.67799 64.15725,322.56836 70.99667,328.45874 C 56.51027,324.71737 46.6604,318.40016 43.3274,308.46246 C 40.27723,302.44738 37.87146,304.80944 35.4219,306.60234 C 38.64044,311.94102 37.31001,316.14245 33.09675,319.62318 C 30.22559,330.81056 39.67045,328.23299 46.81512,328.22622 C 48.27921,330.81539 49.42645,333.61579 54.48811,333.80658 C 56.11916,337.79586 60.64907,339.50323 62.1611,340.08448 C 55.8761,350.70905 61.81431,354.63058 74.71691,354.73292 C 75.37225,366.62249 74.51206,367.12264 85.18007,371.00895 C 67.94246,370.12914 69.04214,378.54209 76.34451,384.49482 C 80.77652,383.65575 84.99808,383.76372 88.20277,388.44757 C 93.62658,388.6783 93.91368,382.91619 91.923,374.49668 C 92.63783,365.19609 89.73735,355.89549 87.50522,346.5949 z M 363.45801,28.119266 C 361.19481,34.346491 355.45971,36.523112 349.90961,38.915601 L 359.22411,39.55068 L 355.41371,46.324851 C 356.18721,45.101385 357.98811,47.365112 358.58991,46.114175 C 366.39371,29.890412 393.58301,50.227635 427.38921,30.65958 C 416.01121,52.940707 408.00121,56.573837 378.48821,59.873187 C 373.00101,67.379977 363.66661,66.711377 353.72011,64.742127 C 358.41421,74.695257 369.44911,70.698617 379.54661,68.764287 C 389.76071,71.745767 386.81651,87.885477 396.90551,90.992037 C 389.68181,95.160287 384.10021,92.350067 379.12331,86.969877 C 383.69991,97.858907 386.62481,110.06935 393.73011,118.9355 C 373.16551,120.47064 370.99101,105.28745 361.55281,96.707747 C 359.09971,107.93396 359.50561,119.51932 347.36931,126.97983 C 338.53691,121.34333 335.48621,112.71441 332.76251,102.63515 C 324.59741,119.26621 315.02751,127.62246 302.91381,125.07459 C 308.48511,112.85443 317.34131,104.99137 314.55691,83.371097 L 317.94401,83.371097 C 314.63221,75.889707 307.24531,70.472337 306.08921,62.625197 C 315.42421,65.741317 324.47441,67.718587 329.37541,53.099022 C 334.26321,53.207271 339.65921,54.332007 345.67581,56.697797 C 339.80041,49.730525 331.25181,45.43643 323.23631,40.609144 C 316.78201,37.293376 310.00531,37.714576 300.79691,41.03253 C 290.04641,44.933418 276.71291,42.106307 272.21841,29.17773 C 271.52311,13.114811 286.78271,9.582619 299.95011,10.125374 C 323.27231,11.817508 341.66241,25.279253 363.45801,28.119266 z M 410.24211,45.266386 C 400.70341,49.352843 385.27891,51.766549 376.79461,56.274407 C 366.65651,60.664547 362.90801,58.265607 361.76441,53.099022 C 360.87711,45.881193 367.90521,43.679511 379.12331,43.784537 C 388.77991,45.949942 398.90001,47.033708 410.24211,45.266386 z M 173.40097,210.17589 C 163.07473,220.35043 156.35348,233.19623 158.56308,252.32897 C 166.26413,251.29083 171.99401,247.29592 176.09876,240.86333 C 176.49227,249.54121 178.27939,257.66165 187.5644,262.78294 C 199.37251,260.24114 207.78409,253.73672 214.20515,244.91003 C 214.35842,251.24066 215.4546,257.09984 220.94964,260.75959 C 240.50927,260.81879 250.98221,249.16682 265.63191,241.53779 C 250.19941,242.8269 251.02311,235.56016 252.31151,228.0488 C 235.29943,240.9069 217.61603,239.13349 219.93797,226.36267 C 197.50638,242.32366 180.57173,234.32511 186.88995,219.28096 C 174.98923,220.6593 171.87557,224.13041 173.40097,210.17589 z M 173.73819,249.63117 C 168.93002,253.49292 162.91487,255.84565 157.21418,254.35232 C 157.41665,263.12016 151.27215,271.55078 160.24921,281.66752 C 165.35774,282.19329 170.1999,281.1209 174.41264,276.27192 L 179.13379,287.06311 C 192.04618,283.7789 200.124,277.73207 206.78621,270.87633 C 215.78748,281.29582 236.59629,267.41647 244.55537,259.07347 C 227.47389,264.5684 217.53705,268.67923 210.49568,254.68955 C 191.98441,269.85488 179.47003,271.66956 173.73819,249.63117 z M 242.89974,565.03464 C 229.99616,582.49867 237.67061,604.86781 264.80761,593.01592 C 239.95618,577.83652 253.03101,568.11779 264.37371,554.18919 C 262.97531,567.91383 262.13211,581.33249 288.45061,579.78447 C 279.94681,570.80956 279.02411,562.44113 284.98011,554.62301 C 300.88141,534.72735 288.04201,524.95125 269.14571,515.36245 C 262.30791,508.05413 268.53641,495.78402 278.25591,493.45463 C 297.14041,488.81517 314.01331,501.58661 344.63011,500.82954 C 353.99271,480.19989 323.12131,439.49859 312.52761,435.10608 C 292.32431,442.93905 259.48561,443.26446 240.51374,436.62444 C 215.65598,423.22222 188.78274,438.45661 181.73137,457.66462 C 178.1007,471.5671 165.3193,470.39696 157.43754,465.47335 C 159.73342,487.91246 178.06695,486.66819 189.97391,471.11299 C 192.05624,477.25369 188.00631,483.4599 187.79046,488.1337 C 187.37665,497.09399 189.83108,502.91616 200.82786,508.68553 C 217.45189,518.08756 211.51826,535.78957 198.65028,545.51282 C 184.08886,557.27921 175.8473,573.25884 169.36755,590.41301 C 163.81496,602.94176 145.18194,598.10538 143.55536,588.67774 C 141.25993,576.27579 147.65679,556.05077 135.0959,552.88773 C 131.70631,560.3609 126.62586,562.7615 120.34608,561.5641 C 113.78032,560.47493 112.5418,565.69822 116.87554,568.7221 C 129.14139,575.58391 127.54061,592.96951 143.98917,602.55992 C 126.44053,604.95229 121.33473,560.30863 104.94553,572.19265 C 106.58689,577.37499 105.57851,581.8949 98.00444,584.77338 C 95.46803,586.43364 92.05874,590.96912 99.52281,592.14829 C 122.5168,592.58417 115.0431,611.51104 138.91,612.14129 C 141.00305,612.19656 140.90051,614.59931 138.41255,614.88618 C 129.01587,613.76973 123.06027,612.14383 117.66032,606.79076 C 112.83371,599.15734 104.48275,590.99232 94.10008,597.35411 C 95.51187,603.97381 96.77713,610.54022 88.46044,613.62229 C 82.54831,631.55912 112.36731,624.82444 124.46736,630.32429 C 151.37993,630.82997 148.71713,635.35387 158.52209,620.34647 C 159.59419,625.19522 156.22694,630.04396 152.40137,634.89271 C 150.58493,637.9315 148.38467,641.85858 148.42216,645.58153 C 148.48513,651.83507 152.38979,656.89461 156.98191,651.68803 C 160.59813,640.81115 173.44219,640.18565 177.00057,650.83978 C 178.48657,653.98934 182.07597,654.23951 182.9383,650.67013 C 184.37016,637.2762 176.33434,636.30116 175.30407,623.52619 C 206.27306,604.53964 227.47128,588.19458 242.89974,565.03464 z M 135.21205,282.10456 C 148.6612,289.39237 168.54411,280.96129 180.47899,290.84931 C 169.9583,318.44365 132.92725,299.46757 135.21205,282.10456 z M 127.80933,308.81298 C 128.62954,306.22459 137.44398,306.55299 144.84768,306.76611 C 153.79417,307.02365 161.5346,305.9416 162.09001,308.58595 C 156.27891,319.11751 132.487,318.39344 127.80933,308.81298 z M 168.4467,310.17512 C 169.48327,333.33247 161.99145,348.72921 139.38757,349.67737 C 138.69537,346.13102 143.64686,341.95613 144.79744,337.17777 C 147.32749,326.67047 154.14324,315.11668 168.4467,310.17512 z M 168.4467,333.78566 C 165.06234,341.26843 161.76841,348.20617 154.28106,353.93052 C 151.02679,355.86518 148.79825,358.88028 149.14962,362.61776 C 168.82095,366.87771 185.9985,354.79413 168.4467,333.78566 z M 179.11685,351.94762 C 186.68241,357.83232 195.78013,374.9752 187.28973,381.23377 C 176.07507,379.40005 174.17546,360.34604 179.11685,351.94762 z M 127.20211,194.21463 C 140.13788,197.60767 152.98041,207.29516 159.44783,215.9677 C 164.3034,213.64138 165.87125,210.49314 168.14906,207.52239 C 158.88768,191.62218 140.13327,185.34912 127.20211,194.21463 z M 139.23028,165.29585 C 139.42271,171.57707 149.38582,186.81047 157.6564,187.81667 C 157.19826,166.43587 156.34903,165.35709 139.23028,165.29585 z M 177.1062,136.63298 C 179.19387,143.84885 182.70488,150.82749 188.87845,157.36237 C 188.78565,162.21732 186.56131,164.94075 183.76008,167.08727 C 173.43841,157.07808 169.86101,145.20722 177.1062,136.63298 z M 200.6507,143.28686 C 199.46443,154.96416 200.68594,165.71538 208.32825,173.99707 C 205.00715,177.65471 201.95313,181.38867 193.99682,183.72197 C 186.73639,171.99714 191.49732,147.7185 200.6507,143.28686 z M 157.6564,147.12564 C 167.57301,152.81509 181.68278,166.57022 192.20539,185.25748 C 193.6556,187.45919 186.91641,193.28789 184.27192,192.4232 C 179.47571,188.33851 175.65543,179.37423 171.476,172.20564 C 169.264,171.71762 168.46691,172.54344 169.17273,174.76483 C 172.65959,181.61593 175.2232,187.08216 179.92131,195.75014 C 181.16396,198.43043 178.146,203.62077 172.08743,203.38481 C 158.02106,186.78892 156.13623,167.10991 157.6564,147.12564 z M 378.12971,141.92577 C 376.72121,151.27765 367.85511,150.61815 362.41781,147.16307 L 361.52611,165.32047 L 358.36211,154.33946 C 349.72401,174.11004 339.41761,166.9184 334.53891,150.24485 C 331.79481,154.69826 328.82591,161.84876 326.53581,160.85362 C 325.86471,157.72231 329.47021,154.0715 331.37491,148.7559 C 320.63211,155.46209 312.46831,156.24552 311.27411,144.8474 C 301.31101,150.06794 291.38081,155.94717 280.93671,151.54768 C 269.92281,156.88562 258.99421,162.24916 252.83281,169.04284 C 261.41931,179.98035 278.37881,172.82766 293.40671,161.97033 C 281.78981,186.88092 303.38061,172.24495 315.92701,161.59809 C 315.30211,184.70189 321.85621,177.04037 333.98061,165.87882 C 326.73981,177.20589 316.67431,189.80295 310.52961,170.15956 C 304.13881,174.56957 291.56371,185.89045 285.21751,171.27627 C 276.85731,179.4057 244.95104,182.63965 248.55206,167.55389 C 244.38615,167.83154 214.32017,173.67309 211.14218,182.62951 C 214.04068,186.98965 222.47083,185.81812 230.1263,185.42129 C 210.09855,206.66058 245.57461,204.28709 260.83591,191.56321 C 251.48301,215.43823 283.70491,200.96235 291.54551,190.81874 C 283.25091,214.18491 310.41421,204.10244 317.60211,189.32979 C 318.68821,217.09089 350.00321,183.92183 352.40631,171.27627 C 358.36211,189.3646 365.62081,189.17087 370.27371,170.34567 C 373.30161,186.96544 363.13971,197.1782 352.03411,181.32668 C 343.41181,194.42784 323.69311,216.72721 314.62421,198.26349 C 311.97521,203.27053 287.16731,216.52993 285.40361,199.75243 C 272.94331,208.32279 256.98151,213.4309 253.57731,199.75244 C 239.88122,208.15651 209.21348,208.84846 221.56484,188.95755 C 214.36026,190.89675 208.38782,190.37168 206.11698,182.44339 C 190.05026,190.44254 178.64771,202.37817 177.08245,216.87537 C 186.26381,218.73406 193.90909,212.91234 202.20848,210.36121 C 197.77037,215.70623 189.68834,219.85203 191.97195,230.0898 C 205.87585,230.89204 216.02773,222.93958 227.1484,217.2476 C 226.3205,222.52097 222.50057,227.79433 226.59004,233.0677 C 239.44238,236.64756 249.86271,224.82466 261.39421,220.03939 C 256.54801,228.54359 253.84501,237.6042 261.39421,238.83738 C 275.42111,239.29427 283.86801,231.27759 293.77891,222.45893 C 293.41101,226.96948 290.51391,232.00086 294.89561,235.67336 C 304.24731,235.85625 310.85191,227.65678 318.53271,222.45893 C 318.44341,227.34614 316.95101,232.79461 319.09111,236.79007 C 324.30481,236.85457 339.06401,226.92194 338.44741,212.78075 C 341.04561,204.80708 344.11341,200.82534 348.68401,209.61673 C 351.77431,214.66018 354.19231,220.76024 360.59561,220.59774 C 362.00621,211.94035 359.62751,196.12656 365.62081,195.47171 C 368.83871,196.30266 369.93861,198.27637 371.94881,200.12468 C 379.49351,194.02067 377.92291,178.8014 378.46301,165.6927 L 385.53551,169.41508 C 386.92061,158.9674 383.44291,143.56448 378.12971,141.92577 z M 620.74601,416.51097 C 641.70471,417.3605 654.70241,386.48492 629.88931,389.66116 C 654.01871,398.81875 623.27561,416.82363 609.91821,398.0827 C 602.39041,376.52874 629.11431,370.70675 623.63331,346.10975 C 617.88581,326.25091 596.33611,323.86483 585.85671,344.90667 C 579.50881,354.84629 583.59361,364.82895 565.16381,381.48023 C 557.24601,388.80791 549.32221,395.37159 545.67391,408.18855 C 538.23131,375.88288 517.85261,379.57302 495.86651,387.73623 C 515.60301,390.94413 536.66101,401.12621 532.44011,436.34057 C 531.21801,464.03004 545.18801,481.8378 565.64501,494.81014 C 580.50321,505.5112 607.54851,513.70436 599.09061,541.24893 C 589.68421,532.24236 576.09151,526.78623 569.73551,538.84278 C 589.91891,531.2179 599.30201,556.45147 573.82591,556.88894 C 526.59511,557.40095 498.82761,507.1493 493.21971,469.30489 C 488.06031,432.29587 467.66571,409.46512 443.89351,397.84208 C 401.47981,379.8471 381.24661,359.82483 364.24981,338.89128 C 367.99371,348.83263 373.34381,358.31506 372.91201,369.44945 C 353.23061,370.91239 339.16261,354.41257 322.38271,346.59098 C 326.56641,355.96462 335.72691,364.78529 334.65411,374.74299 C 323.58971,378.98225 316.73271,370.5992 307.94581,368.00576 C 308.54271,373.55763 308.95791,379.01869 305.78021,382.68331 C 293.84801,387.81197 284.08401,373.42633 273.29711,368.24638 C 274.75401,373.53992 275.86881,378.83346 273.53781,384.127 C 260.05451,387.22114 254.85771,380.18748 246.58883,376.90853 C 246.36895,380.05336 246.66003,383.28334 242.73898,385.81131 C 227.53571,386.12042 225.21101,376.90193 217.47435,370.89314 C 215.65063,374.55298 213.72516,378.16194 213.14327,382.44269 C 231.17428,398.41068 243.82042,404.7724 297.35871,416.85071 C 324.89851,426.43312 372.49351,427.81878 354.86581,492.40399 L 345.96301,530.42123 C 341.53461,551.99642 338.36241,553.35991 350.05351,575.65695 C 356.24351,586.86752 359.10811,597.46226 348.12861,605.49328 C 361.82851,605.84503 374.75371,605.47045 368.34031,586.96588 C 365.33631,579.8291 360.07881,571.79091 359.91871,565.79172 C 362.52821,564.39001 368.32281,581.86617 389.99571,587.68773 C 401.59251,590.70714 410.24431,597.60145 409.72611,616.56159 C 409.22591,625.18295 410.24221,632.79326 411.65111,640.14191 C 418.95851,660.96248 412.50471,670.31533 396.73291,671.90316 C 386.18741,672.28721 381.72631,644.95039 360.64061,652.17269 C 364.41981,659.51994 363.19481,665.43739 357.99381,670.21885 C 354.79011,678.07442 360.10311,677.41332 365.69351,676.47485 C 380.87361,670.64036 383.46631,686.73209 410.44801,679.12163 C 396.59041,697.63474 368.91401,668.14067 357.99381,685.85886 C 361.68081,689.65684 362.68991,695.59617 360.65961,703.20574 C 363.58111,708.10002 368.38841,706.019 372.59171,701.94029 C 386.61921,689.11591 397.13301,706.63296 415.50091,688.74625 C 404.75551,715.37858 373.89011,689.49933 370.26521,711.60472 C 377.35591,714.18088 378.20241,719.63901 377.00241,726.04165 C 385.90521,732.52605 394.80801,730.78574 403.71081,721.22934 C 408.73171,716.08042 413.57791,710.40733 419.83201,708.95795 C 437.80001,703.37709 432.46201,688.30121 434.50951,676.23424 C 438.74941,685.076 435.84481,706.42069 449.18711,699.33333 C 450.61661,688.29555 456.66761,686.88609 465.78961,691.87425 C 474.98551,687.81033 466.22411,673.46585 455.68371,672.14377 C 447.88761,671.41358 441.73351,663.91633 445.33721,651.45084 C 453.48131,626.65071 449.59401,596.007 452.07451,590.81573 C 465.05371,615.7844 478.49081,618.67136 490.57301,596.83112 C 462.24071,601.33775 463.68311,583.15889 461.21791,567.95726 C 470.92271,579.19271 483.03371,587.19162 493.94161,569.16033 C 479.94631,570.69046 478.53991,561.72991 475.65481,554.00156 C 468.51661,529.07774 452.49621,533.02065 435.23141,541.00832 C 415.67911,547.24161 407.90841,532.43718 416.22281,521.51846 C 429.76581,501.65688 437.16131,489.08891 443.19521,471.77898 C 449.88261,452.59414 441.80801,422.02166 445.09661,417.81317 C 469.67441,425.59639 477.71471,460.25291 487.44501,492.16337 C 497.81851,527.16475 516.54081,568.35594 569.25421,572.28833 C 601.63051,573.64891 638.74711,544.76687 590.42841,497.69752 C 562.68561,476.30005 587.69431,455.71494 599.09061,466.15812 C 602.15531,446.48432 568.95211,447.09477 567.08871,470.9892 C 554.86671,447.77598 582.20391,430.99086 599.09061,442.11534 C 594.02081,425.6629 567.21051,428.9121 558.18591,449.81504 C 549.93461,420.26116 581.49191,415.20507 596.68441,424.5504 C 586.89821,403.50338 559.82541,416.40215 551.20811,427.91902 C 553.27591,423.00092 555.80771,415.06114 565.58331,405.39469 C 579.25841,392.1095 588.58581,380.11587 591.91511,365.68114 C 595.54741,349.56199 600.51361,342.66317 607.45521,344.96102 C 619.44681,350.38397 610.89711,362.25785 604.86521,372.58784 C 589.18861,390.38355 598.45821,417.47295 620.74601,416.51097 z M 386.74421,48.877878 C 379.74291,46.929186 367.45061,45.223552 367.90351,52.053271 C 369.55421,57.565277 383.20581,53.683985 386.74421,48.877878 z M 367.61061,32.802937 C 383.57511,30.880779 400.65161,36.411118 412.72431,14.16524 C 389.61521,26.647384 360.35581,7.782797 354.19841,20.784236 C 359.17431,24.320236 365.81761,22.331183 371.44271,24.790469 C 369.77301,27.519353 368.38091,30.074053 367.61061,32.802937 z M 283.25291,149.3484 C 290.98791,143.58133 296.33581,136.53986 300.46141,128.99417 C 306.41841,131.12826 311.12561,128.30784 316.02881,127.80751 C 309.27491,146.19424 296.38131,151.5192 283.25291,149.3484 z M 329.73371,115.61508 C 318.75541,119.25811 312.94041,139.09004 317.71831,151.11833 C 332.93691,149.57441 346.92441,128.32872 332.32021,115.94092 C 330.95521,120.62319 330.55031,124.49559 329.22281,125.67555 C 328.81251,123.64121 329.62921,121.32331 329.73371,115.61508 z M 351.41941,129.42056 C 358.37891,137.54092 357.48591,157.17489 347.02681,163.30673 C 334.97711,157.68777 337.16471,131.46853 343.57541,129.52515 C 347.39431,130.2645 346.05921,139.27679 346.60841,144.79485 L 348.38641,145.21319 C 349.13621,139.54714 347.45111,130.13506 351.41941,129.42056 z M 361.14601,112.47748 C 365.30401,112.41777 364.78701,124.87176 366.16621,125.44626 L 366.32311,125.1325 C 367.96841,125.85353 368.23591,122.87164 365.43411,111.64078 C 369.33861,111.40384 374.70741,116.58474 377.14781,119.58939 C 377.44861,129.57185 379.10851,141.94897 370.87261,146.67741 C 363.53931,144.20706 353.34241,137.4514 354.76621,123.5637 C 357.86371,120.3801 359.41171,116.75172 361.14601,112.47748 z M 380.59921,120.94902 C 378.44061,142.5427 381.86461,143.16539 396.28721,142.07558 C 397.04621,141.04173 396.04611,138.47411 395.30491,138.14399 C 385.41011,133.73719 393.37001,120.74181 380.59921,120.94902 z M 310.57541,427.94807 C 326.46921,440.35239 341.65081,457.86603 349.61901,475.885 C 358.51071,446.06337 328.64791,428.70625 310.57541,427.94807 z M 328.59951,236.45919 C 338.10591,230.79705 342.33761,222.70039 343.85191,213.34957 C 349.97821,212.11525 351.79351,225.69965 347.78051,238.77015 C 344.17131,241.94366 332.74941,240.75547 328.59951,236.45919 z M 385.93911,247.69988 L 390.57191,217.00735 C 402.19841,217.76518 408.37571,228.18468 403.31221,246.54167 L 385.93911,247.69988 z M 416.63161,181.682 C 421.64931,211.80971 426.29551,214.10287 407.94501,244.80436 C 408.09851,249.4562 411.64791,248.77167 415.09161,248.2531 C 419.32291,246.20508 421.04281,238.99681 423.96911,237.02042 L 421.43261,245.89786 C 420.43081,247.75519 422.23331,252.76962 426.14311,251.33303 C 452.97551,225.09052 450.52921,185.82383 416.63161,181.682 z M 471.07381,61.694967 C 486.93661,66.329187 486.06791,164.1671 478.45001,190.22744 C 476.16351,198.04934 470.42481,200.69389 466.36341,203.32238 C 467.16621,187.17595 469.53371,172.54086 469.36821,146.61013 C 464.52621,154.29567 467.50721,218.66776 453.31901,216.72913 C 454.42581,186.82946 466.89511,70.328687 471.07381,61.694967 z M 487.57351,225.7712 L 491.96301,196.3612 C 537.98581,129.8291 547.59091,107.48486 544.63761,14.633735 C 600.37921,38.846886 554.82841,156.70254 531.46901,201.62867 L 492.84091,226.21016 C 529.18171,170.52433 531.50311,175.95718 553.41681,111.64284 C 553.34551,105.72336 551.61221,107.11657 549.46611,110.32598 C 532.74911,169.8011 527.69671,169.56857 487.57351,225.7712 z M 526.08211,234.55812 C 528.88871,203.16926 593.26551,116.33864 624.89181,120.92697 C 631.07061,133.7157 566.42981,188.99572 546.66751,234.55812 C 540.77921,236.29996 532.88321,240.23007 525.53321,244.16462 L 571.36991,174.17442 C 575.40951,169.14669 572.62691,168.2646 568.07631,173.351 C 553.80341,190.73544 538.85421,225.9945 526.08211,234.55812 z M 546.17301,265.1498 C 551.37021,266.63766 630.23421,204.62815 633.15791,198.83845 C 608.04421,183.66035 550.48901,220.85658 552.21901,241.94083 C 556.05511,246.36766 559.53061,233.79419 589.50071,216.56624 C 591.67961,215.94103 591.46961,216.54132 590.42971,218.17612 C 583.00631,220.99033 545.79861,247.77987 546.17301,265.1498 z M 375.67581,284.07101 C 381.12151,286.21604 390.27351,285.58142 398.65401,285.52533 C 409.75111,283.56648 439.26931,269.7899 455.98351,239.55596 C 457.75211,236.9556 459.02121,239.18482 457.37571,241.54626 C 447.27131,262.51405 421.55551,277.11788 414.36071,284.07101 C 449.11731,291.20299 492.27681,224.38039 485.91311,193.90331 C 463.61361,208.35455 443.35011,239.44896 419.01451,262.25624 C 414.37341,266.95899 409.70121,271.63695 401.27181,273.30906 C 390.99171,276.89638 380.66141,280.48369 375.67581,284.07101 z M 447.38621,279.07259 L 462.33851,278.82747 L 490.52741,253.33492 C 493.79571,251.70077 493.79571,253.0081 490.52741,257.25685 L 465.03481,279.80795 L 470.91771,288.14206 C 490.17811,276.00748 525.78561,243.99243 526.31501,208.47783 C 505.66161,215.13709 495.92141,229.7575 485.13471,241.81424 C 451.96171,275.06895 444.64381,276.74363 447.38621,279.07259 z M 409.14731,313.14437 C 445.08281,307.75111 474.51731,294.99096 497.39081,271.96409 C 510.95511,261.98157 531.14051,240.68082 548.37591,240.58864 C 539.19431,284.95781 500.31851,317.57564 475.32991,311.1834 C 489.89921,299.83813 502.54301,291.70218 520.67721,274.4153 C 520.37281,272.35743 519.09471,272.73387 517.49071,273.92506 C 494.97371,299.02858 466.07101,316.16294 412.57901,315.35045 L 409.14731,313.14437 z M 490.77251,317.0663 C 536.10851,299.95814 583.69921,297.55302 630.98161,299.90785 C 616.64241,267.55942 547.61991,273.31976 528.52111,289.12254 C 517.34311,302.66748 504.09051,307.91419 491.01761,313.87973 L 490.77251,317.0663 z M 418.70701,318.78214 C 422.74551,324.19822 426.26961,329.87153 429.00211,335.94059 C 451.62051,334.17512 474.37941,332.55765 484.88961,318.04678 C 471.07911,308.86289 442.11931,320.59937 418.70701,318.78214 z M 325.80631,312.40901 C 358.45261,313.16852 447.55801,310.1674 464.78971,289.12254 C 457.12371,280.86533 382.64831,289.52863 343.20991,294.02495 C 342.61391,296.06762 342.13141,298.1103 339.77821,300.15297 C 350.97251,302.6574 364.28811,299.50493 376.54631,299.17249 C 379.19891,300.23468 379.33021,301.29687 376.54631,302.35906 C 358.27671,304.09846 331.88991,299.69898 325.80631,312.40901 z M 328.21101,319.86392 C 342.39471,321.76586 364.00681,334.06999 367.81141,364.46241 C 361.31811,364.23055 352.81141,358.27364 345.04721,353.07862 C 332.18821,344.47465 319.94201,342.9133 322.05951,339.85635 C 326.66411,338.63437 327.98791,335.60014 329.87131,333.01751 C 337.51231,333.78683 342.22451,343.33877 349.17431,344.37548 C 345.27791,338.13644 329.86631,334.85034 328.21101,319.86392 z M 342.08341,317.7991 C 344.06931,318.43608 343.38691,319.11083 345.27321,319.81156 C 371.89911,329.70228 392.79931,342.78146 424.79091,344.13492 C 422.20611,317.57399 404.93171,311.99813 382.13131,314.31668 C 382.29621,318.57341 394.45111,321.45702 397.14921,325.63455 C 383.75821,323.04492 377.79481,311.71872 342.08341,317.7991 z M 313.35341,342.82901 C 319.19501,349.72131 328.27131,360.96663 329.02431,370.03543 C 305.07351,366.48967 298.69291,353.42674 292.67651,342.39371 L 313.35341,342.82901 z M 257.62561,262.03333 C 242.44331,271.17103 226.86442,278.12771 210.24493,279.36113 C 192.73573,285.79319 174.57561,291.20237 171.79886,320.78542 C 175.3821,347.12764 195.074,361.65684 208.3497,380.89125 C 221.67637,361.5069 206.60667,349.05185 194.27086,337.30099 C 206.89828,342.10413 218.79591,344.63321 227.84348,331.88605 C 223.89753,323.57682 212.19518,322.31887 200.49804,321.05617 C 210.90576,319.01599 222.55156,318.48902 226.7605,308.87255 C 221.0827,298.97881 210.91372,300.76213 201.85177,299.66716 C 211.73975,297.65371 222.78671,299.11719 230.00946,289.10803 C 227.31821,284.15349 223.60879,284.28979 220.26257,282.6101 C 225.61661,282.22862 229.95557,280.69345 234.61216,289.37877 C 231.90257,296.49997 228.99676,298.77506 224.86527,300.20865 C 235.63812,308.44506 228.34317,314.67393 219.99182,320.78542 C 239.72018,327.04893 240.25101,342.65931 205.64223,345.15265 C 219.72608,352.63331 222.07905,381.68049 241.65158,382.51573 C 246.63766,365.41928 237.41831,356.97514 226.76049,348.40161 C 243.27599,350.39696 259.89641,352.62549 270.08001,340.54995 C 266.05851,330.13163 241.15858,332.19855 239.21486,328.09559 C 249.50341,325.38985 262.10361,326.57737 269.53851,314.55824 C 263.65611,304.33934 243.53511,305.46065 237.31963,302.91612 C 253.46601,301.08066 268.55721,298.64224 269.80931,288.29578 C 269.25641,283.28333 258.76461,282.15785 250.85701,281.79786 C 282.02711,274.98335 279.16461,297.69579 257.62561,303.99911 C 276.89201,307.23323 279.41841,324.14996 253.29371,327.82484 C 283.62991,333.25598 281.60591,352.37473 240.83934,354.35805 C 245.63251,369.93912 254.73361,380.73448 270.62151,379.53752 C 275.04481,367.21882 260.85921,355.39205 263.04061,353.00431 C 266.64701,350.84967 288.25811,377.63113 302.56961,376.28855 C 306.15251,359.43343 288.79791,350.42986 281.72211,337.57173 C 297.33941,336.38535 316.23601,342.57748 326.66611,329.72007 C 319.48681,314.13025 297.49531,317.91019 281.99291,313.20451 C 302.70681,309.31783 329.07821,311.75421 338.57901,295.33521 C 327.33121,285.28121 302.29341,290.27081 283.88811,288.02504 C 299.46151,283.34386 321.96301,286.45681 327.20761,270.15574 C 321.23441,262.18734 290.98511,263.10321 272.24601,263.65781 C 275.85661,260.4925 340.48391,253.15793 332.08111,277.73665 L 359.96801,272.59246 L 326.93691,283.69309 C 338.75241,295.79531 360.15871,286.50266 381.08631,278.27815 C 397.62891,271.29199 415.82131,264.80071 418.44941,253.64017 C 379.40591,241.91742 374.71351,268.33244 332.62261,262.57482 C 347.13281,260.68571 359.34991,257.42075 370.25641,253.36942 C 365.51171,241.59003 350.76281,243.9833 337.76671,243.89328 C 288.92271,230.66378 266.49851,240.68377 253.56441,259.05511 C 266.01801,253.72384 278.32761,247.24107 291.46901,247.41299 L 294.98871,249.30822 C 281.47671,251.96345 268.29081,255.10774 257.62561,262.03333 z"
       id="path2428"
       style="fill:#5880e6;fill-opacity:1;fill-rule:evenodd;stroke:none;stroke-width:1px;stroke-linecap:butt;stroke-linejoin:miter;marker:none;marker-start:none;marker-mid:none;marker-end:none;stroke-miterlimit:4;stroke-dasharray:none;stroke-dashoffset:0;stroke-opacity:1;visibility:visible;display:inline;overflow:visible;enable-background:accumulate" />
    <g
       transform="translate(-752.65508,19.199359)"
       id="layer2" />
  </g>
</svg>
